<svg xmlns="http://www.w3.org/2000/svg" width="202" height="80" viewBox="0 0 202 80" fill="none">
<g clip-path="url(#clip0_1_1676)">
<path d="M78.408 30.344C78.8747 30.344 79.276 30.5027 79.612 30.82C79.9667 31.1187 80.144 31.5013 80.144 31.968C80.144 32.2107 80.088 32.4627 79.976 32.724L73.06 48.908C72.892 49.2813 72.6493 49.5613 72.332 49.748C72.0333 49.916 71.7253 50 71.408 50C71.1093 49.9813 70.82 49.888 70.54 49.72C70.26 49.5333 70.0453 49.272 69.896 48.936L62.98 32.696C62.924 32.584 62.8867 32.472 62.868 32.36C62.8493 32.2293 62.84 32.108 62.84 31.996C62.84 31.4547 63.036 31.044 63.428 30.764C63.82 30.4653 64.1933 30.316 64.548 30.316C65.2573 30.316 65.7707 30.68 66.088 31.408L72.22 45.828L71.24 45.856L76.868 31.408C77.1853 30.6987 77.6987 30.344 78.408 30.344ZM90.0363 50.28C88.4496 50.28 87.0683 49.9533 85.8923 49.3C84.735 48.628 83.839 47.7227 83.2043 46.584C82.5883 45.4453 82.2803 44.1573 82.2803 42.72C82.2803 41.04 82.6163 39.612 83.2883 38.436C83.979 37.2413 84.875 36.3267 85.9763 35.692C87.0776 35.0573 88.2443 34.74 89.4763 34.74C90.4283 34.74 91.3243 34.936 92.1643 35.328C93.023 35.72 93.779 36.2613 94.4323 36.952C95.0856 37.624 95.599 38.408 95.9723 39.304C96.3643 40.2 96.5603 41.152 96.5603 42.16C96.5416 42.608 96.3643 42.972 96.0283 43.252C95.6923 43.532 95.3003 43.672 94.8523 43.672H84.1563L83.3163 40.872H93.5923L92.9763 41.432V40.676C92.939 40.1347 92.743 39.6493 92.3883 39.22C92.0523 38.7907 91.623 38.4547 91.1003 38.212C90.5963 37.9507 90.055 37.82 89.4763 37.82C88.9163 37.82 88.3936 37.8947 87.9083 38.044C87.423 38.1933 87.003 38.4453 86.6483 38.8C86.2936 39.1547 86.0136 39.6307 85.8083 40.228C85.603 40.8253 85.5003 41.5813 85.5003 42.496C85.5003 43.504 85.7056 44.3627 86.1163 45.072C86.5456 45.7627 87.087 46.2947 87.7403 46.668C88.4123 47.0227 89.1216 47.2 89.8683 47.2C90.559 47.2 91.1096 47.144 91.5203 47.032C91.931 46.92 92.2576 46.7893 92.5003 46.64C92.7616 46.472 92.995 46.332 93.2003 46.22C93.5363 46.052 93.8536 45.968 94.1523 45.968C94.563 45.968 94.899 46.108 95.1603 46.388C95.4403 46.668 95.5803 46.9947 95.5803 47.368C95.5803 47.872 95.319 48.3293 94.7963 48.74C94.311 49.1507 93.6296 49.5147 92.7523 49.832C91.875 50.1307 90.9696 50.28 90.0363 50.28ZM106.415 34.74C107.199 34.74 107.918 34.8613 108.571 35.104C109.225 35.3467 109.785 35.6547 110.251 36.028C110.737 36.4013 111.11 36.784 111.371 37.176C111.651 37.5493 111.791 37.8667 111.791 38.128L111.063 38.492V36.448C111.063 35.9627 111.222 35.5613 111.539 35.244C111.857 34.908 112.258 34.74 112.743 34.74C113.229 34.74 113.63 34.8987 113.947 35.216C114.265 35.5333 114.423 35.944 114.423 36.448V48.908C114.423 50.532 114.069 51.8293 113.359 52.8C112.669 53.7893 111.754 54.4987 110.615 54.928C109.477 55.376 108.254 55.6 106.947 55.6C106.574 55.6 106.089 55.5533 105.491 55.46C104.894 55.3667 104.325 55.2547 103.783 55.124C103.242 54.9933 102.831 54.872 102.551 54.76C101.991 54.5173 101.599 54.2093 101.375 53.836C101.17 53.4813 101.133 53.0987 101.263 52.688C101.431 52.1467 101.702 51.7733 102.075 51.568C102.449 51.3813 102.841 51.3627 103.251 51.512C103.438 51.568 103.746 51.68 104.175 51.848C104.605 52.016 105.071 52.1653 105.575 52.296C106.098 52.4453 106.555 52.52 106.947 52.52C108.347 52.52 109.383 52.24 110.055 51.68C110.727 51.12 111.063 50.3453 111.063 49.356V46.92L111.399 47.172C111.399 47.4147 111.269 47.7133 111.007 48.068C110.765 48.404 110.419 48.74 109.971 49.076C109.542 49.412 109.029 49.7013 108.431 49.944C107.834 50.168 107.199 50.28 106.527 50.28C105.202 50.28 104.007 49.9533 102.943 49.3C101.879 48.628 101.039 47.7133 100.423 46.556C99.8072 45.38 99.4992 44.036 99.4992 42.524C99.4992 40.9933 99.8072 39.6493 100.423 38.492C101.039 37.316 101.87 36.4013 102.915 35.748C103.961 35.076 105.127 34.74 106.415 34.74ZM106.947 37.82C106.107 37.82 105.37 38.0253 104.735 38.436C104.101 38.8467 103.606 39.4067 103.251 40.116C102.897 40.8253 102.719 41.628 102.719 42.524C102.719 43.4013 102.897 44.1947 103.251 44.904C103.606 45.6133 104.101 46.1733 104.735 46.584C105.37 46.9947 106.107 47.2 106.947 47.2C107.806 47.2 108.553 46.9947 109.187 46.584C109.822 46.1733 110.317 45.6133 110.671 44.904C111.026 44.1947 111.203 43.4013 111.203 42.524C111.203 41.628 111.026 40.8253 110.671 40.116C110.317 39.4067 109.822 38.8467 109.187 38.436C108.553 38.0253 107.806 37.82 106.947 37.82ZM125.338 50.28C124.031 50.28 122.855 50.1213 121.81 49.804C120.765 49.468 119.766 48.8893 118.814 48.068C118.571 47.8627 118.385 47.6293 118.254 47.368C118.123 47.1067 118.058 46.8453 118.058 46.584C118.058 46.1547 118.207 45.7813 118.506 45.464C118.823 45.128 119.215 44.96 119.682 44.96C120.037 44.96 120.354 45.072 120.634 45.296C121.343 45.8747 122.043 46.3133 122.734 46.612C123.443 46.9107 124.311 47.06 125.338 47.06C126.029 47.06 126.663 46.9573 127.242 46.752C127.821 46.528 128.287 46.2387 128.642 45.884C128.997 45.5107 129.174 45.0907 129.174 44.624C129.174 44.064 129.006 43.588 128.67 43.196C128.334 42.804 127.821 42.4773 127.13 42.216C126.439 41.936 125.562 41.7213 124.498 41.572C123.49 41.4227 122.603 41.1987 121.838 40.9C121.073 40.5827 120.429 40.1907 119.906 39.724C119.402 39.2387 119.019 38.6787 118.758 38.044C118.497 37.3907 118.366 36.6627 118.366 35.86C118.366 34.6467 118.674 33.6107 119.29 32.752C119.925 31.8933 120.774 31.24 121.838 30.792C122.902 30.344 124.078 30.12 125.366 30.12C126.579 30.12 127.699 30.3067 128.726 30.68C129.771 31.0347 130.621 31.492 131.274 32.052C131.815 32.4813 132.086 32.976 132.086 33.536C132.086 33.9467 131.927 34.32 131.61 34.656C131.293 34.992 130.919 35.16 130.49 35.16C130.21 35.16 129.958 35.076 129.734 34.908C129.435 34.6467 129.034 34.404 128.53 34.18C128.026 33.9373 127.494 33.7413 126.934 33.592C126.374 33.424 125.851 33.34 125.366 33.34C124.563 33.34 123.882 33.4427 123.322 33.648C122.781 33.8533 122.37 34.1333 122.09 34.488C121.81 34.8427 121.67 35.2533 121.67 35.72C121.67 36.28 121.829 36.7467 122.146 37.12C122.482 37.4747 122.958 37.764 123.574 37.988C124.19 38.1933 124.927 38.38 125.786 38.548C126.906 38.7533 127.886 38.996 128.726 39.276C129.585 39.556 130.294 39.92 130.854 40.368C131.414 40.7973 131.834 41.348 132.114 42.02C132.394 42.6733 132.534 43.476 132.534 44.428C132.534 45.6413 132.198 46.6867 131.526 47.564C130.854 48.4413 129.967 49.1133 128.866 49.58C127.783 50.0467 126.607 50.28 125.338 50.28ZM144.173 34.74C145.517 34.74 146.534 35.0293 147.225 35.608C147.934 36.1867 148.42 36.9613 148.681 37.932C148.942 38.884 149.073 39.948 149.073 41.124V48.292C149.073 48.7773 148.914 49.188 148.597 49.524C148.28 49.8413 147.878 50 147.393 50C146.908 50 146.506 49.8413 146.189 49.524C145.872 49.188 145.713 48.7773 145.713 48.292V41.124C145.713 40.508 145.638 39.9573 145.489 39.472C145.34 38.968 145.069 38.5667 144.677 38.268C144.285 37.9693 143.725 37.82 142.997 37.82C142.288 37.82 141.681 37.9693 141.177 38.268C140.673 38.5667 140.29 38.968 140.029 39.472C139.786 39.9573 139.665 40.508 139.665 41.124V48.292C139.665 48.7773 139.506 49.188 139.189 49.524C138.872 49.8413 138.47 50 137.985 50C137.5 50 137.098 49.8413 136.781 49.524C136.464 49.188 136.305 48.7773 136.305 48.292V30.988C136.305 30.5027 136.464 30.1013 136.781 29.784C137.098 29.448 137.5 29.28 137.985 29.28C138.47 29.28 138.872 29.448 139.189 29.784C139.506 30.1013 139.665 30.5027 139.665 30.988V37.932L139.245 37.848C139.413 37.5307 139.646 37.1947 139.945 36.84C140.244 36.4667 140.608 36.1213 141.037 35.804C141.466 35.4867 141.942 35.2347 142.465 35.048C142.988 34.8427 143.557 34.74 144.173 34.74ZM168.083 42.524C168.083 44.0547 167.738 45.408 167.047 46.584C166.375 47.7413 165.461 48.6467 164.303 49.3C163.165 49.9533 161.886 50.28 160.467 50.28C159.049 50.28 157.761 49.9533 156.603 49.3C155.465 48.6467 154.55 47.7413 153.859 46.584C153.187 45.408 152.851 44.0547 152.851 42.524C152.851 40.9933 153.187 39.6493 153.859 38.492C154.55 37.316 155.465 36.4013 156.603 35.748C157.761 35.076 159.049 34.74 160.467 34.74C161.886 34.74 163.165 35.076 164.303 35.748C165.461 36.4013 166.375 37.316 167.047 38.492C167.738 39.6493 168.083 40.9933 168.083 42.524ZM164.723 42.524C164.723 41.572 164.527 40.7507 164.135 40.06C163.762 39.3507 163.249 38.8 162.595 38.408C161.961 38.016 161.251 37.82 160.467 37.82C159.683 37.82 158.965 38.016 158.311 38.408C157.677 38.8 157.163 39.3507 156.771 40.06C156.398 40.7507 156.211 41.572 156.211 42.524C156.211 43.4573 156.398 44.2787 156.771 44.988C157.163 45.6787 157.677 46.22 158.311 46.612C158.965 47.004 159.683 47.2 160.467 47.2C161.251 47.2 161.961 47.004 162.595 46.612C163.249 46.22 163.762 45.6787 164.135 44.988C164.527 44.2787 164.723 43.4573 164.723 42.524ZM179.62 34.74C180.927 34.74 182.093 35.076 183.12 35.748C184.165 36.4013 184.987 37.3067 185.584 38.464C186.2 39.6213 186.508 40.9653 186.508 42.496C186.508 44.0267 186.2 45.38 185.584 46.556C184.987 47.7133 184.175 48.628 183.148 49.3C182.14 49.9533 181.001 50.28 179.732 50.28C178.985 50.28 178.285 50.1587 177.632 49.916C176.979 49.6733 176.4 49.3653 175.896 48.992C175.411 48.6187 175.028 48.2453 174.748 47.872C174.487 47.48 174.356 47.1533 174.356 46.892L175.224 46.528V53.892C175.224 54.3773 175.065 54.7787 174.748 55.096C174.431 55.432 174.029 55.6 173.544 55.6C173.059 55.6 172.657 55.4413 172.34 55.124C172.023 54.8067 171.864 54.396 171.864 53.892V36.728C171.864 36.2427 172.023 35.8413 172.34 35.524C172.657 35.188 173.059 35.02 173.544 35.02C174.029 35.02 174.431 35.188 174.748 35.524C175.065 35.8413 175.224 36.2427 175.224 36.728V38.1L174.748 37.848C174.748 37.6053 174.879 37.316 175.14 36.98C175.401 36.6253 175.756 36.28 176.204 35.944C176.652 35.5893 177.165 35.3 177.744 35.076C178.341 34.852 178.967 34.74 179.62 34.74ZM179.2 37.82C178.379 37.82 177.66 38.0253 177.044 38.436C176.428 38.8467 175.943 39.4067 175.588 40.116C175.252 40.8067 175.084 41.6 175.084 42.496C175.084 43.3733 175.252 44.176 175.588 44.904C175.943 45.6133 176.428 46.1733 177.044 46.584C177.66 46.9947 178.379 47.2 179.2 47.2C180.021 47.2 180.731 46.9947 181.328 46.584C181.944 46.1733 182.42 45.6133 182.756 44.904C183.111 44.176 183.288 43.3733 183.288 42.496C183.288 41.6 183.111 40.8067 182.756 40.116C182.42 39.4067 181.944 38.8467 181.328 38.436C180.731 38.0253 180.021 37.82 179.2 37.82Z" fill="#222222"/>
<circle cx="26.7207" cy="39.7207" r="26.7207" fill="#01693A"/>
<g clip-path="url(#clip1_1_1676)">
<path opacity="0.924" fill-rule="evenodd" clip-rule="evenodd" d="M41.6808 37.7373C41.6808 38.6077 41.6808 39.4781 41.6808 40.3485C41.0796 45.2765 38.6618 49.0193 34.4274 51.5768C33.0939 52.3113 31.6819 52.8335 30.1914 53.1435C28.2965 54.676 26.2075 55.0048 23.9244 54.13C23.4973 53.9343 23.1008 53.6925 22.7349 53.4047C21.9267 54.1759 20.9596 54.5821 19.8335 54.6232C19.2446 54.5726 18.6643 54.476 18.0927 54.3331C17.7524 54.3867 17.4139 54.4544 17.0772 54.5362C15.9694 54.6944 14.9636 54.4526 14.0598 53.8109C13.8968 53.5738 13.9161 53.3514 14.1178 53.1435C14.2164 53.088 14.3228 53.0589 14.437 53.0565C14.8919 53.2787 15.3658 53.4625 15.8586 53.6078C16.2261 53.6465 16.5937 53.6465 16.9612 53.6078C17.3295 53.4891 17.7066 53.4214 18.0927 53.4047C20.9577 54.1385 22.6985 53.0553 23.3152 50.1551C23.6019 48.4929 23.2537 46.9842 22.2707 45.629C21.2502 44.5349 20.0219 44.2254 18.5859 44.7006C18.5888 45.0194 18.5791 45.3482 18.5569 45.687C18.2424 46.0875 17.9523 46.0681 17.6865 45.629C17.6852 45.2993 17.6368 44.9801 17.5414 44.6716C15.51 44.2028 14.0883 44.9281 13.2764 46.8476C12.6788 48.4963 12.7369 50.121 13.4505 51.7219C13.5446 52.261 13.3222 52.464 12.7832 52.3312C12.5504 52.0493 12.386 51.7302 12.29 51.3737C12.1565 50.9273 12.0501 50.4824 11.9708 50.0391C11.9708 49.4201 11.9708 48.8012 11.9708 48.1822C12.1004 47.3099 12.3712 46.4782 12.7832 45.687C11.8511 42.7221 11.8608 39.7627 12.8122 36.8088C13.406 35.1161 14.4215 33.7429 15.8586 32.6889C15.7376 32.2 15.5538 31.7358 15.3074 31.2963C14.9979 30.832 14.6884 30.3678 14.3789 29.9036C14.2619 29.1307 14.5907 28.6858 15.3654 28.569C15.9275 28.7533 16.4691 28.9854 16.9902 29.2653C17.0727 28.4347 16.8986 27.661 16.4679 26.9442C16.2493 26.681 16.0752 26.3909 15.9457 26.0738C15.9262 25.2424 16.3228 24.9232 17.1352 25.1163C18.1469 25.4911 19.027 26.0617 19.7755 26.8281C19.9059 26.9922 20.022 27.1663 20.1237 27.3504C20.6768 26.4979 21.4215 25.8692 22.3577 25.4645C22.7272 25.2699 23.1141 25.1249 23.5183 25.0293C24.1218 25.1203 24.3829 25.4685 24.3016 26.0738C24.1721 26.3909 23.998 26.681 23.7794 26.9442C23.3488 27.6607 23.1747 28.4344 23.2571 29.2653C23.785 28.9772 24.3363 28.7451 24.9109 28.569C25.7612 28.7412 26.061 29.2441 25.8103 30.0777C25.2164 30.7622 24.7715 31.536 24.4757 32.3988C24.437 32.5148 24.437 32.6309 24.4757 32.7469C25.8173 33.7024 26.7651 34.9596 27.319 36.5187C27.3771 37.0215 27.1546 37.2246 26.6517 37.128C26.6034 37.0797 26.555 37.0313 26.5067 36.9829C25.2566 33.8574 22.9452 32.3197 19.5724 32.3698C17.6518 32.5223 16.1141 33.3637 14.9592 34.8939C13.6648 36.8599 13.0361 39.0262 13.0733 41.393C13.0573 42.5414 13.212 43.6633 13.5375 44.7586C14.5871 43.7612 15.825 43.3936 17.2513 43.6561C17.3141 43.6059 17.3238 43.5479 17.2803 43.482C16.9233 42.7577 16.4204 42.1581 15.7716 41.6831C15.6696 41.3064 15.805 41.0743 16.1778 40.9868C16.8855 41.3461 17.4464 41.8684 17.8606 42.5536C18.0733 42.9209 18.2377 43.3077 18.3538 43.7141C18.3925 43.7334 18.4312 43.7528 18.4699 43.7721C19.159 43.6197 19.8553 43.5714 20.5589 43.6271C20.9543 43.7142 21.3411 43.811 21.7194 43.9172C26.7485 38.8881 31.7775 33.8591 36.8065 28.8301C37.0386 28.6367 37.2707 28.6367 37.5028 28.8301C39.9351 31.3061 41.3278 34.2752 41.6808 37.7373ZM17.1352 26.1898C17.9179 26.4892 18.5852 26.9534 19.1372 27.5825C19.5189 28.1614 19.7124 28.7997 19.7175 29.4974C19.9883 29.8069 20.259 29.8069 20.5298 29.4974C20.5387 28.3479 21.0126 27.4485 21.9515 26.7991C22.314 26.5502 22.7009 26.3471 23.1121 26.1898C22.6607 26.8959 22.3995 27.6696 22.3287 28.5109C22.29 29.0912 22.29 29.6715 22.3287 30.2518C22.4687 30.4428 22.6524 30.5105 22.88 30.4549C23.5369 30.1312 24.2043 29.8314 24.8819 29.5554C24.9109 29.5748 24.9399 29.5941 24.9689 29.6135C24.3148 30.3798 23.8409 31.2502 23.5473 32.2247C21.2764 31.1423 19.0036 31.1423 16.7291 32.2247C16.4101 31.2574 15.9265 30.387 15.2784 29.6135C15.3074 29.5941 15.3364 29.5748 15.3654 29.5554C16.043 29.8314 16.7103 30.1312 17.3674 30.4549C17.5949 30.5105 17.7787 30.4428 17.9186 30.2518C18.1197 28.8008 17.8586 27.4468 17.1352 26.1898ZM23.2281 43.8302C27.3542 39.6848 31.4548 35.5649 35.5299 31.4703C37.1058 33.1525 38.0633 35.1447 38.4023 37.4471C38.4511 38.1066 38.5092 38.7643 38.5763 39.4201C38.7653 39.59 38.9878 39.6384 39.2437 39.5651C39.3134 39.5127 39.3617 39.4451 39.3887 39.3621C39.4887 36.0634 38.4346 33.2007 36.2262 30.774C36.5155 30.4557 36.8153 30.1462 37.1257 29.8456C40.1423 33.1712 41.2835 37.059 40.5493 41.5091C39.3761 46.7249 36.2619 50.2066 31.2069 51.954C31.1972 51.9347 31.1876 51.9153 31.1779 51.896C31.4928 51.3822 31.7443 50.8407 31.9322 50.2712C35.7356 48.5856 38.1437 45.7229 39.1566 41.6831C39.3293 41.1055 39.1262 40.8444 38.5473 40.8998C38.4893 40.9481 38.4313 40.9965 38.3733 41.0448C37.5662 44.7506 35.4772 47.4585 32.1063 49.1687C32.0191 46.1727 30.5685 44.19 27.7542 43.2209C26.1629 42.8346 24.6542 43.0377 23.2281 43.8302ZM25.7813 43.9462C27.8549 43.8561 29.4313 44.6878 30.5105 46.4414C31.5932 48.7563 31.216 50.797 29.379 52.5633C27.3911 54.0241 25.3795 54.0628 23.3442 52.6793C24.2026 51.2144 24.5024 49.6379 24.2436 47.9501C24.0979 46.9221 23.7208 45.9937 23.1121 45.1648C23.8731 44.4748 24.7628 44.0686 25.7813 43.9462Z" fill="white"/>
<path opacity="0.895" fill-rule="evenodd" clip-rule="evenodd" d="M34.9498 35.2999C35.5029 35.243 35.706 35.4751 35.5591 35.9962C35.4886 36.0861 35.4016 36.1538 35.298 36.1993C35.0078 36.2961 34.7177 36.3927 34.4276 36.4895C33.8685 36.4898 33.7041 36.2287 33.9343 35.7061C34.2753 35.5637 34.6138 35.4283 34.9498 35.2999Z" fill="white"/>
<path opacity="0.903" fill-rule="evenodd" clip-rule="evenodd" d="M18.9923 35.7639C19.1559 35.7493 19.3106 35.7783 19.4565 35.851C19.6789 36.0734 19.9014 36.2959 20.1238 36.5183C20.3462 36.2959 20.5687 36.0734 20.7911 35.851C21.318 35.6644 21.5598 35.8482 21.5165 36.4022C21.1605 36.8163 20.7833 37.2128 20.3849 37.5918C20.2109 37.7078 20.0368 37.7078 19.8627 37.5918C19.5048 37.2339 19.147 36.8761 18.7892 36.5183C18.6353 36.2014 18.703 35.95 18.9923 35.7639Z" fill="white"/>
<path opacity="0.904" fill-rule="evenodd" clip-rule="evenodd" d="M22.9382 35.7641C23.1605 35.7496 23.3539 35.8173 23.5184 35.9672C23.6724 36.1676 23.8465 36.3514 24.0407 36.5185C24.3028 36.266 24.5736 36.0242 24.8531 35.7932C25.4215 35.8006 25.5859 36.0617 25.3463 36.5765C25.0271 36.8957 24.708 37.2148 24.3888 37.534C24.2752 37.588 24.1591 37.6363 24.0407 37.679C23.5068 37.3679 23.0522 36.9617 22.677 36.4605C22.5789 36.1489 22.6659 35.9168 22.9382 35.7641Z" fill="white"/>
<path opacity="0.914" fill-rule="evenodd" clip-rule="evenodd" d="M17.1354 38.4912C17.2761 38.522 17.4115 38.5704 17.5416 38.6363C17.7447 38.8394 17.9478 39.0425 18.1509 39.2456C18.413 38.915 18.7322 38.6636 19.1084 38.4912C19.4556 38.5669 19.6007 38.7797 19.5436 39.1295C19.1876 39.5436 18.8104 39.9401 18.412 40.3191C18.2847 40.3987 18.1492 40.4181 18.0058 40.3771C17.5724 40.0018 17.1565 39.6052 16.7582 39.1875C16.6599 38.8227 16.7856 38.5906 17.1354 38.4912Z" fill="white"/>
<path opacity="0.906" fill-rule="evenodd" clip-rule="evenodd" d="M21.0233 38.4912C21.143 38.5021 21.2591 38.5311 21.3714 38.5783C21.5947 38.8113 21.8268 39.0337 22.0677 39.2456C22.3087 39.0337 22.5408 38.8113 22.7641 38.5783C23.2972 38.4343 23.5197 38.6374 23.4314 39.1875C23.0948 39.5822 22.7369 39.9594 22.3579 40.3191C22.2111 40.4016 22.0563 40.4209 21.8937 40.3771C21.4796 40.0211 21.0831 39.6439 20.7041 39.2456C20.5854 38.8821 20.6919 38.6307 21.0233 38.4912Z" fill="white"/>
<path opacity="0.903" fill-rule="evenodd" clip-rule="evenodd" d="M34.5436 38.4915C34.9921 38.4735 35.437 38.5025 35.8783 38.5786C36.0936 38.7244 36.1613 38.9275 36.0813 39.1878C36.0523 39.2942 35.9846 39.3619 35.8783 39.3909C35.4527 39.4296 35.0272 39.4296 34.6016 39.3909C34.157 39.1129 34.1377 38.813 34.5436 38.4915Z" fill="white"/>
<path opacity="0.893" fill-rule="evenodd" clip-rule="evenodd" d="M33.9053 41.3345C34.3784 41.3955 34.8233 41.5502 35.24 41.7987C35.4838 42.0788 35.4644 42.34 35.1819 42.5821C34.686 42.5619 34.2217 42.4169 33.7893 42.1469C33.5487 41.8333 33.5874 41.5625 33.9053 41.3345Z" fill="white"/>
<path opacity="0.894" fill-rule="evenodd" clip-rule="evenodd" d="M32.3386 43.7139C32.4794 43.7152 32.6148 43.7442 32.7448 43.8009C32.9866 44.0427 33.2283 44.2844 33.4701 44.5262C33.6755 45.1325 33.4724 45.3743 32.8608 45.2516C32.5997 44.9905 32.3386 44.7293 32.0774 44.4682C31.9348 44.135 32.0219 43.8835 32.3386 43.7139Z" fill="white"/>
<path opacity="0.846" fill-rule="evenodd" clip-rule="evenodd" d="M27.1161 45.2806C27.5611 45.2708 27.7449 45.4836 27.6674 45.9189C27.5261 46.193 27.3036 46.2801 27.0001 46.18C26.6648 45.8228 26.7036 45.523 27.1161 45.2806Z" fill="white"/>
</g>
</g>
<defs>
<clipPath id="clip0_1_1676">
<rect width="202" height="80" fill="white"/>
</clipPath>
<clipPath id="clip1_1_1676">
<rect width="29.71" height="29.71" fill="white" transform="translate(12 25)"/>
</clipPath>
</defs>
</svg>